<?xml version="1.0" encoding="utf-8" standalone="no"?>
<!DOCTYPE svg PUBLIC "-//W3C//DTD SVG 1.1//EN"
  "http://www.w3.org/Graphics/SVG/1.1/DTD/svg11.dtd">
<svg xmlns:xlink="http://www.w3.org/1999/xlink" width="1080pt" height="1080pt" viewBox="0 0 1080 1080" xmlns="http://www.w3.org/2000/svg" version="1.1">
 <metadata>
  <rdf:RDF xmlns:dc="http://purl.org/dc/elements/1.1/" xmlns:cc="http://creativecommons.org/ns#" xmlns:rdf="http://www.w3.org/1999/02/22-rdf-syntax-ns#">
   <cc:Work>
    <dc:type rdf:resource="http://purl.org/dc/dcmitype/StillImage"/>
    <dc:date>2022-12-17T11:47:36.712472</dc:date>
    <dc:format>image/svg+xml</dc:format>
    <dc:creator>
     <cc:Agent>
      <dc:title>Matplotlib v3.6.2, https://matplotlib.org/</dc:title>
     </cc:Agent>
    </dc:creator>
   </cc:Work>
  </rdf:RDF>
 </metadata>
 <defs>
  <style type="text/css">*{stroke-linejoin: round; stroke-linecap: butt}</style>
 </defs>
 <g id="figure_1">
  <g id="patch_1">
   <path d="M 0 1080 
L 1080 1080 
L 1080 0 
L 0 0 
L 0 1080 
z
" style="fill: none"/>
  </g>
  <g id="axes_1">
   <g id="patch_2">
    <path d="M 135 945 
L 972 945 
L 972 129.6 
L 135 129.6 
z
" style="fill: #ffffff"/>
   </g>
   <g id="patch_3">
    <path d="M 154.022727 945 
L 163.111364 945 
L 163.111364 168.428571 
L 154.022727 168.428571 
z
" clip-path="url(#p26996a9e31)" style="fill: #1f77b4; opacity: 0.5"/>
   </g>
   <g id="patch_4">
    <path d="M 163.111364 945 
L 172.2 945 
L 172.2 945 
L 163.111364 945 
z
" clip-path="url(#p26996a9e31)" style="fill: #1f77b4; opacity: 0.5"/>
   </g>
   <g id="patch_5">
    <path d="M 172.2 945 
L 181.288636 945 
L 181.288636 366.463969 
L 172.2 366.463969 
z
" clip-path="url(#p26996a9e31)" style="fill: #1f77b4; opacity: 0.5"/>
   </g>
   <g id="patch_6">
    <path d="M 181.288636 945 
L 190.377273 945 
L 190.377273 945 
L 181.288636 945 
z
" clip-path="url(#p26996a9e31)" style="fill: #1f77b4; opacity: 0.5"/>
   </g>
   <g id="patch_7">
    <path d="M 190.377273 945 
L 199.465909 945 
L 199.465909 506.711607 
L 190.377273 506.711607 
z
" clip-path="url(#p26996a9e31)" style="fill: #1f77b4; opacity: 0.5"/>
   </g>
   <g id="patch_8">
    <path d="M 199.465909 945 
L 208.554545 945 
L 208.554545 945 
L 199.465909 945 
z
" clip-path="url(#p26996a9e31)" style="fill: #1f77b4; opacity: 0.5"/>
   </g>
   <g id="patch_9">
    <path d="M 208.554545 945 
L 217.643182 945 
L 217.643182 616.051315 
L 208.554545 616.051315 
z
" clip-path="url(#p26996a9e31)" style="fill: #1f77b4; opacity: 0.5"/>
   </g>
   <g id="patch_10">
    <path d="M 217.643182 945 
L 226.731818 945 
L 226.731818 945 
L 217.643182 945 
z
" clip-path="url(#p26996a9e31)" style="fill: #1f77b4; opacity: 0.5"/>
   </g>
   <g id="patch_11">
    <path d="M 226.731818 945 
L 235.820455 945 
L 235.820455 699.208365 
L 226.731818 699.208365 
z
" clip-path="url(#p26996a9e31)" style="fill: #1f77b4; opacity: 0.5"/>
   </g>
   <g id="patch_12">
    <path d="M 235.820455 945 
L 244.909091 945 
L 244.909091 945 
L 235.820455 945 
z
" clip-path="url(#p26996a9e31)" style="fill: #1f77b4; opacity: 0.5"/>
   </g>
   <g id="patch_13">
    <path d="M 244.909091 945 
L 253.997727 945 
L 253.997727 765.981888 
L 244.909091 765.981888 
z
" clip-path="url(#p26996a9e31)" style="fill: #1f77b4; opacity: 0.5"/>
   </g>
   <g id="patch_14">
    <path d="M 253.997727 945 
L 263.086364 945 
L 263.086364 945 
L 253.997727 945 
z
" clip-path="url(#p26996a9e31)" style="fill: #1f77b4; opacity: 0.5"/>
   </g>
   <g id="patch_15">
    <path d="M 263.086364 945 
L 272.175 945 
L 272.175 809.090317 
L 263.086364 809.090317 
z
" clip-path="url(#p26996a9e31)" style="fill: #1f77b4; opacity: 0.5"/>
   </g>
   <g id="patch_16">
    <path d="M 272.175 945 
L 281.263636 945 
L 281.263636 945 
L 272.175 945 
z
" clip-path="url(#p26996a9e31)" style="fill: #1f77b4; opacity: 0.5"/>
   </g>
   <g id="patch_17">
    <path d="M 281.263636 945 
L 290.352273 945 
L 290.352273 840.50176 
L 281.263636 840.50176 
z
" clip-path="url(#p26996a9e31)" style="fill: #1f77b4; opacity: 0.5"/>
   </g>
   <g id="patch_18">
    <path d="M 290.352273 945 
L 299.440909 945 
L 299.440909 945 
L 290.352273 945 
z
" clip-path="url(#p26996a9e31)" style="fill: #1f77b4; opacity: 0.5"/>
   </g>
   <g id="patch_19">
    <path d="M 299.440909 945 
L 308.529545 945 
L 308.529545 869.744225 
L 299.440909 869.744225 
z
" clip-path="url(#p26996a9e31)" style="fill: #1f77b4; opacity: 0.5"/>
   </g>
   <g id="patch_20">
    <path d="M 308.529545 945 
L 317.618182 945 
L 317.618182 945 
L 308.529545 945 
z
" clip-path="url(#p26996a9e31)" style="fill: #1f77b4; opacity: 0.5"/>
   </g>
   <g id="patch_21">
    <path d="M 317.618182 945 
L 326.706818 945 
L 326.706818 886.669996 
L 317.618182 886.669996 
z
" clip-path="url(#p26996a9e31)" style="fill: #1f77b4; opacity: 0.5"/>
   </g>
   <g id="patch_22">
    <path d="M 326.706818 945 
L 335.795455 945 
L 335.795455 945 
L 326.706818 945 
z
" clip-path="url(#p26996a9e31)" style="fill: #1f77b4; opacity: 0.5"/>
   </g>
   <g id="patch_23">
    <path d="M 335.795455 945 
L 344.884091 945 
L 344.884091 900.807082 
L 335.795455 900.807082 
z
" clip-path="url(#p26996a9e31)" style="fill: #1f77b4; opacity: 0.5"/>
   </g>
   <g id="patch_24">
    <path d="M 344.884091 945 
L 353.972727 945 
L 353.972727 945 
L 344.884091 945 
z
" clip-path="url(#p26996a9e31)" style="fill: #1f77b4; opacity: 0.5"/>
   </g>
   <g id="patch_25">
    <path d="M 353.972727 945 
L 363.061364 945 
L 363.061364 945 
L 353.972727 945 
z
" clip-path="url(#p26996a9e31)" style="fill: #1f77b4; opacity: 0.5"/>
   </g>
   <g id="patch_26">
    <path d="M 363.061364 945 
L 372.15 945 
L 372.15 911.729434 
L 363.061364 911.729434 
z
" clip-path="url(#p26996a9e31)" style="fill: #1f77b4; opacity: 0.5"/>
   </g>
   <g id="patch_27">
    <path d="M 372.15 945 
L 381.238636 945 
L 381.238636 945 
L 372.15 945 
z
" clip-path="url(#p26996a9e31)" style="fill: #1f77b4; opacity: 0.5"/>
   </g>
   <g id="patch_28">
    <path d="M 381.238636 945 
L 390.327273 945 
L 390.327273 919.591977 
L 381.238636 919.591977 
z
" clip-path="url(#p26996a9e31)" style="fill: #1f77b4; opacity: 0.5"/>
   </g>
   <g id="patch_29">
    <path d="M 390.327273 945 
L 399.415909 945 
L 399.415909 945 
L 390.327273 945 
z
" clip-path="url(#p26996a9e31)" style="fill: #1f77b4; opacity: 0.5"/>
   </g>
   <g id="patch_30">
    <path d="M 399.415909 945 
L 408.504545 945 
L 408.504545 925.363007 
L 399.415909 925.363007 
z
" clip-path="url(#p26996a9e31)" style="fill: #1f77b4; opacity: 0.5"/>
   </g>
   <g id="patch_31">
    <path d="M 408.504545 945 
L 417.593182 945 
L 417.593182 945 
L 408.504545 945 
z
" clip-path="url(#p26996a9e31)" style="fill: #1f77b4; opacity: 0.5"/>
   </g>
   <g id="patch_32">
    <path d="M 417.593182 945 
L 426.681818 945 
L 426.681818 930.049548 
L 417.593182 930.049548 
z
" clip-path="url(#p26996a9e31)" style="fill: #1f77b4; opacity: 0.5"/>
   </g>
   <g id="patch_33">
    <path d="M 426.681818 945 
L 435.770455 945 
L 435.770455 945 
L 426.681818 945 
z
" clip-path="url(#p26996a9e31)" style="fill: #1f77b4; opacity: 0.5"/>
   </g>
   <g id="patch_34">
    <path d="M 435.770455 945 
L 444.859091 945 
L 444.859091 935.898041 
L 435.770455 935.898041 
z
" clip-path="url(#p26996a9e31)" style="fill: #1f77b4; opacity: 0.5"/>
   </g>
   <g id="patch_35">
    <path d="M 444.859091 945 
L 453.947727 945 
L 453.947727 945 
L 444.859091 945 
z
" clip-path="url(#p26996a9e31)" style="fill: #1f77b4; opacity: 0.5"/>
   </g>
   <g id="patch_36">
    <path d="M 453.947727 945 
L 463.036364 945 
L 463.036364 936.866334 
L 453.947727 936.866334 
z
" clip-path="url(#p26996a9e31)" style="fill: #1f77b4; opacity: 0.5"/>
   </g>
   <g id="patch_37">
    <path d="M 463.036364 945 
L 472.125 945 
L 472.125 945 
L 463.036364 945 
z
" clip-path="url(#p26996a9e31)" style="fill: #1f77b4; opacity: 0.5"/>
   </g>
   <g id="patch_38">
    <path d="M 472.125 945 
L 481.213636 945 
L 481.213636 939.88741 
L 472.125 939.88741 
z
" clip-path="url(#p26996a9e31)" style="fill: #1f77b4; opacity: 0.5"/>
   </g>
   <g id="patch_39">
    <path d="M 481.213636 945 
L 490.302273 945 
L 490.302273 945 
L 481.213636 945 
z
" clip-path="url(#p26996a9e31)" style="fill: #1f77b4; opacity: 0.5"/>
   </g>
   <g id="patch_40">
    <path d="M 490.302273 945 
L 499.390909 945 
L 499.390909 941.204289 
L 490.302273 941.204289 
z
" clip-path="url(#p26996a9e31)" style="fill: #1f77b4; opacity: 0.5"/>
   </g>
   <g id="patch_41">
    <path d="M 499.390909 945 
L 508.479545 945 
L 508.479545 945 
L 499.390909 945 
z
" clip-path="url(#p26996a9e31)" style="fill: #1f77b4; opacity: 0.5"/>
   </g>
   <g id="patch_42">
    <path d="M 508.479545 945 
L 517.568182 945 
L 517.568182 941.901461 
L 508.479545 941.901461 
z
" clip-path="url(#p26996a9e31)" style="fill: #1f77b4; opacity: 0.5"/>
   </g>
   <g id="patch_43">
    <path d="M 517.568182 945 
L 526.656818 945 
L 526.656818 945 
L 517.568182 945 
z
" clip-path="url(#p26996a9e31)" style="fill: #1f77b4; opacity: 0.5"/>
   </g>
   <g id="patch_44">
    <path d="M 526.656818 945 
L 535.745455 945 
L 535.745455 942.482437 
L 526.656818 942.482437 
z
" clip-path="url(#p26996a9e31)" style="fill: #1f77b4; opacity: 0.5"/>
   </g>
   <g id="patch_45">
    <path d="M 535.745455 945 
L 544.834091 945 
L 544.834091 945 
L 535.745455 945 
z
" clip-path="url(#p26996a9e31)" style="fill: #1f77b4; opacity: 0.5"/>
   </g>
   <g id="patch_46">
    <path d="M 544.834091 945 
L 553.922727 945 
L 553.922727 942.908486 
L 544.834091 942.908486 
z
" clip-path="url(#p26996a9e31)" style="fill: #1f77b4; opacity: 0.5"/>
   </g>
   <g id="patch_47">
    <path d="M 553.922727 945 
L 563.011364 945 
L 563.011364 945 
L 553.922727 945 
z
" clip-path="url(#p26996a9e31)" style="fill: #1f77b4; opacity: 0.5"/>
   </g>
   <g id="patch_48">
    <path d="M 563.011364 945 
L 572.1 945 
L 572.1 945 
L 563.011364 945 
z
" clip-path="url(#p26996a9e31)" style="fill: #1f77b4; opacity: 0.5"/>
   </g>
   <g id="patch_49">
    <path d="M 572.1 945 
L 581.188636 945 
L 581.188636 943.179608 
L 572.1 943.179608 
z
" clip-path="url(#p26996a9e31)" style="fill: #1f77b4; opacity: 0.5"/>
   </g>
   <g id="patch_50">
    <path d="M 581.188636 945 
L 590.277273 945 
L 590.277273 945 
L 581.188636 945 
z
" clip-path="url(#p26996a9e31)" style="fill: #1f77b4; opacity: 0.5"/>
   </g>
   <g id="patch_51">
    <path d="M 590.277273 945 
L 599.365909 945 
L 599.365909 943.644389 
L 590.277273 943.644389 
z
" clip-path="url(#p26996a9e31)" style="fill: #1f77b4; opacity: 0.5"/>
   </g>
   <g id="patch_52">
    <path d="M 599.365909 945 
L 608.454545 945 
L 608.454545 945 
L 599.365909 945 
z
" clip-path="url(#p26996a9e31)" style="fill: #1f77b4; opacity: 0.5"/>
   </g>
   <g id="patch_53">
    <path d="M 608.454545 945 
L 617.543182 945 
L 617.543182 944.34156 
L 608.454545 944.34156 
z
" clip-path="url(#p26996a9e31)" style="fill: #1f77b4; opacity: 0.5"/>
   </g>
   <g id="patch_54">
    <path d="M 617.543182 945 
L 626.631818 945 
L 626.631818 945 
L 617.543182 945 
z
" clip-path="url(#p26996a9e31)" style="fill: #1f77b4; opacity: 0.5"/>
   </g>
   <g id="patch_55">
    <path d="M 626.631818 945 
L 635.720455 945 
L 635.720455 944.34156 
L 626.631818 944.34156 
z
" clip-path="url(#p26996a9e31)" style="fill: #1f77b4; opacity: 0.5"/>
   </g>
   <g id="patch_56">
    <path d="M 635.720455 945 
L 644.809091 945 
L 644.809091 945 
L 635.720455 945 
z
" clip-path="url(#p26996a9e31)" style="fill: #1f77b4; opacity: 0.5"/>
   </g>
   <g id="patch_57">
    <path d="M 644.809091 945 
L 653.897727 945 
L 653.897727 944.535219 
L 644.809091 944.535219 
z
" clip-path="url(#p26996a9e31)" style="fill: #1f77b4; opacity: 0.5"/>
   </g>
   <g id="patch_58">
    <path d="M 653.897727 945 
L 662.986364 945 
L 662.986364 945 
L 653.897727 945 
z
" clip-path="url(#p26996a9e31)" style="fill: #1f77b4; opacity: 0.5"/>
   </g>
   <g id="patch_59">
    <path d="M 662.986364 945 
L 672.075 945 
L 672.075 944.728878 
L 662.986364 944.728878 
z
" clip-path="url(#p26996a9e31)" style="fill: #1f77b4; opacity: 0.5"/>
   </g>
   <g id="patch_60">
    <path d="M 672.075 945 
L 681.163636 945 
L 681.163636 945 
L 672.075 945 
z
" clip-path="url(#p26996a9e31)" style="fill: #1f77b4; opacity: 0.5"/>
   </g>
   <g id="patch_61">
    <path d="M 681.163636 945 
L 690.252273 945 
L 690.252273 944.612683 
L 681.163636 944.612683 
z
" clip-path="url(#p26996a9e31)" style="fill: #1f77b4; opacity: 0.5"/>
   </g>
   <g id="patch_62">
    <path d="M 690.252273 945 
L 699.340909 945 
L 699.340909 945 
L 690.252273 945 
z
" clip-path="url(#p26996a9e31)" style="fill: #1f77b4; opacity: 0.5"/>
   </g>
   <g id="patch_63">
    <path d="M 699.340909 945 
L 708.429545 945 
L 708.429545 944.845073 
L 699.340909 944.845073 
z
" clip-path="url(#p26996a9e31)" style="fill: #1f77b4; opacity: 0.5"/>
   </g>
   <g id="patch_64">
    <path d="M 708.429545 945 
L 717.518182 945 
L 717.518182 945 
L 708.429545 945 
z
" clip-path="url(#p26996a9e31)" style="fill: #1f77b4; opacity: 0.5"/>
   </g>
   <g id="patch_65">
    <path d="M 717.518182 945 
L 726.606818 945 
L 726.606818 944.883805 
L 717.518182 944.883805 
z
" clip-path="url(#p26996a9e31)" style="fill: #1f77b4; opacity: 0.5"/>
   </g>
   <g id="patch_66">
    <path d="M 726.606818 945 
L 735.695455 945 
L 735.695455 945 
L 726.606818 945 
z
" clip-path="url(#p26996a9e31)" style="fill: #1f77b4; opacity: 0.5"/>
   </g>
   <g id="patch_67">
    <path d="M 735.695455 945 
L 744.784091 945 
L 744.784091 944.922537 
L 735.695455 944.922537 
z
" clip-path="url(#p26996a9e31)" style="fill: #1f77b4; opacity: 0.5"/>
   </g>
   <g id="patch_68">
    <path d="M 744.784091 945 
L 753.872727 945 
L 753.872727 945 
L 744.784091 945 
z
" clip-path="url(#p26996a9e31)" style="fill: #1f77b4; opacity: 0.5"/>
   </g>
   <g id="patch_69">
    <path d="M 753.872727 945 
L 762.961364 945 
L 762.961364 944.922537 
L 753.872727 944.922537 
z
" clip-path="url(#p26996a9e31)" style="fill: #1f77b4; opacity: 0.5"/>
   </g>
   <g id="patch_70">
    <path d="M 762.961364 945 
L 772.05 945 
L 772.05 945 
L 762.961364 945 
z
" clip-path="url(#p26996a9e31)" style="fill: #1f77b4; opacity: 0.5"/>
   </g>
   <g id="patch_71">
    <path d="M 772.05 945 
L 781.138636 945 
L 781.138636 945 
L 772.05 945 
z
" clip-path="url(#p26996a9e31)" style="fill: #1f77b4; opacity: 0.5"/>
   </g>
   <g id="patch_72">
    <path d="M 781.138636 945 
L 790.227273 945 
L 790.227273 945 
L 781.138636 945 
z
" clip-path="url(#p26996a9e31)" style="fill: #1f77b4; opacity: 0.5"/>
   </g>
   <g id="patch_73">
    <path d="M 790.227273 945 
L 799.315909 945 
L 799.315909 945 
L 790.227273 945 
z
" clip-path="url(#p26996a9e31)" style="fill: #1f77b4; opacity: 0.5"/>
   </g>
   <g id="patch_74">
    <path d="M 799.315909 945 
L 808.404545 945 
L 808.404545 945 
L 799.315909 945 
z
" clip-path="url(#p26996a9e31)" style="fill: #1f77b4; opacity: 0.5"/>
   </g>
   <g id="patch_75">
    <path d="M 808.404545 945 
L 817.493182 945 
L 817.493182 945 
L 808.404545 945 
z
" clip-path="url(#p26996a9e31)" style="fill: #1f77b4; opacity: 0.5"/>
   </g>
   <g id="patch_76">
    <path d="M 817.493182 945 
L 826.581818 945 
L 826.581818 944.922537 
L 817.493182 944.922537 
z
" clip-path="url(#p26996a9e31)" style="fill: #1f77b4; opacity: 0.5"/>
   </g>
   <g id="patch_77">
    <path d="M 826.581818 945 
L 835.670455 945 
L 835.670455 945 
L 826.581818 945 
z
" clip-path="url(#p26996a9e31)" style="fill: #1f77b4; opacity: 0.5"/>
   </g>
   <g id="patch_78">
    <path d="M 835.670455 945 
L 844.759091 945 
L 844.759091 945 
L 835.670455 945 
z
" clip-path="url(#p26996a9e31)" style="fill: #1f77b4; opacity: 0.5"/>
   </g>
   <g id="patch_79">
    <path d="M 844.759091 945 
L 853.847727 945 
L 853.847727 945 
L 844.759091 945 
z
" clip-path="url(#p26996a9e31)" style="fill: #1f77b4; opacity: 0.5"/>
   </g>
   <g id="patch_80">
    <path d="M 853.847727 945 
L 862.936364 945 
L 862.936364 944.961268 
L 853.847727 944.961268 
z
" clip-path="url(#p26996a9e31)" style="fill: #1f77b4; opacity: 0.5"/>
   </g>
   <g id="patch_81">
    <path d="M 862.936364 945 
L 872.025 945 
L 872.025 945 
L 862.936364 945 
z
" clip-path="url(#p26996a9e31)" style="fill: #1f77b4; opacity: 0.5"/>
   </g>
   <g id="patch_82">
    <path d="M 872.025 945 
L 881.113636 945 
L 881.113636 945 
L 872.025 945 
z
" clip-path="url(#p26996a9e31)" style="fill: #1f77b4; opacity: 0.5"/>
   </g>
   <g id="patch_83">
    <path d="M 881.113636 945 
L 890.202273 945 
L 890.202273 945 
L 881.113636 945 
z
" clip-path="url(#p26996a9e31)" style="fill: #1f77b4; opacity: 0.5"/>
   </g>
   <g id="patch_84">
    <path d="M 890.202273 945 
L 899.290909 945 
L 899.290909 945 
L 890.202273 945 
z
" clip-path="url(#p26996a9e31)" style="fill: #1f77b4; opacity: 0.5"/>
   </g>
   <g id="patch_85">
    <path d="M 899.290909 945 
L 908.379545 945 
L 908.379545 945 
L 899.290909 945 
z
" clip-path="url(#p26996a9e31)" style="fill: #1f77b4; opacity: 0.5"/>
   </g>
   <g id="patch_86">
    <path d="M 908.379545 945 
L 917.468182 945 
L 917.468182 945 
L 908.379545 945 
z
" clip-path="url(#p26996a9e31)" style="fill: #1f77b4; opacity: 0.5"/>
   </g>
   <g id="patch_87">
    <path d="M 917.468182 945 
L 926.556818 945 
L 926.556818 945 
L 917.468182 945 
z
" clip-path="url(#p26996a9e31)" style="fill: #1f77b4; opacity: 0.5"/>
   </g>
   <g id="patch_88">
    <path d="M 926.556818 945 
L 935.645455 945 
L 935.645455 945 
L 926.556818 945 
z
" clip-path="url(#p26996a9e31)" style="fill: #1f77b4; opacity: 0.5"/>
   </g>
   <g id="patch_89">
    <path d="M 935.645455 945 
L 944.734091 945 
L 944.734091 945 
L 935.645455 945 
z
" clip-path="url(#p26996a9e31)" style="fill: #1f77b4; opacity: 0.5"/>
   </g>
   <g id="patch_90">
    <path d="M 944.734091 945 
L 953.822727 945 
L 953.822727 945 
L 944.734091 945 
z
" clip-path="url(#p26996a9e31)" style="fill: #1f77b4; opacity: 0.5"/>
   </g>
   <g id="patch_91">
    <path d="M 953.822727 945 
L 962.911364 945 
L 962.911364 945 
L 953.822727 945 
z
" clip-path="url(#p26996a9e31)" style="fill: #1f77b4; opacity: 0.5"/>
   </g>
   <g id="patch_92">
    <path d="M 962.911364 945 
L 972 945 
L 972 944.961268 
L 962.911364 944.961268 
z
" clip-path="url(#p26996a9e31)" style="fill: #1f77b4; opacity: 0.5"/>
   </g>
   <g id="matplotlib.axis_1">
    <g id="xtick_1">
     <g id="line2d_1">
      <defs>
       <path id="m420a342c1f" d="M 0 0 
L 0 3.5 
" style="stroke: #000000; stroke-width: 0.8"/>
      </defs>
      <g>
       <use xlink:href="#m420a342c1f" x="135" y="945" style="stroke: #000000; stroke-width: 0.8"/>
      </g>
     </g>
     <g id="text_1">
      <!-- 0 -->
      <g transform="translate(131.81875 959.598438) scale(0.1 -0.1)">
       <defs>
        <path id="DejaVuSans-30" d="M 2034 4250 
Q 1547 4250 1301 3770 
Q 1056 3291 1056 2328 
Q 1056 1369 1301 889 
Q 1547 409 2034 409 
Q 2525 409 2770 889 
Q 3016 1369 3016 2328 
Q 3016 3291 2770 3770 
Q 2525 4250 2034 4250 
z
M 2034 4750 
Q 2819 4750 3233 4129 
Q 3647 3509 3647 2328 
Q 3647 1150 3233 529 
Q 2819 -91 2034 -91 
Q 1250 -91 836 529 
Q 422 1150 422 2328 
Q 422 3509 836 4129 
Q 1250 4750 2034 4750 
z
" transform="scale(0.015625)"/>
       </defs>
       <use xlink:href="#DejaVuSans-30"/>
      </g>
     </g>
    </g>
    <g id="xtick_2">
     <g id="line2d_2">
      <g>
       <use xlink:href="#m420a342c1f" x="230.113636" y="945" style="stroke: #000000; stroke-width: 0.8"/>
      </g>
     </g>
     <g id="text_2">
      <!-- 5 -->
      <g transform="translate(226.932386 959.598438) scale(0.1 -0.1)">
       <defs>
        <path id="DejaVuSans-35" d="M 691 4666 
L 3169 4666 
L 3169 4134 
L 1269 4134 
L 1269 2991 
Q 1406 3038 1543 3061 
Q 1681 3084 1819 3084 
Q 2600 3084 3056 2656 
Q 3513 2228 3513 1497 
Q 3513 744 3044 326 
Q 2575 -91 1722 -91 
Q 1428 -91 1123 -41 
Q 819 9 494 109 
L 494 744 
Q 775 591 1075 516 
Q 1375 441 1709 441 
Q 2250 441 2565 725 
Q 2881 1009 2881 1497 
Q 2881 1984 2565 2268 
Q 2250 2553 1709 2553 
Q 1456 2553 1204 2497 
Q 953 2441 691 2322 
L 691 4666 
z
" transform="scale(0.015625)"/>
       </defs>
       <use xlink:href="#DejaVuSans-35"/>
      </g>
     </g>
    </g>
    <g id="xtick_3">
     <g id="line2d_3">
      <g>
       <use xlink:href="#m420a342c1f" x="325.227273" y="945" style="stroke: #000000; stroke-width: 0.8"/>
      </g>
     </g>
     <g id="text_3">
      <!-- 10 -->
      <g transform="translate(318.864773 959.598438) scale(0.1 -0.1)">
       <defs>
        <path id="DejaVuSans-31" d="M 794 531 
L 1825 531 
L 1825 4091 
L 703 3866 
L 703 4441 
L 1819 4666 
L 2450 4666 
L 2450 531 
L 3481 531 
L 3481 0 
L 794 0 
L 794 531 
z
" transform="scale(0.015625)"/>
       </defs>
       <use xlink:href="#DejaVuSans-31"/>
       <use xlink:href="#DejaVuSans-30" x="63.623047"/>
      </g>
     </g>
    </g>
    <g id="xtick_4">
     <g id="line2d_4">
      <g>
       <use xlink:href="#m420a342c1f" x="420.340909" y="945" style="stroke: #000000; stroke-width: 0.8"/>
      </g>
     </g>
     <g id="text_4">
      <!-- 15 -->
      <g transform="translate(413.978409 959.598438) scale(0.1 -0.1)">
       <use xlink:href="#DejaVuSans-31"/>
       <use xlink:href="#DejaVuSans-35" x="63.623047"/>
      </g>
     </g>
    </g>
    <g id="xtick_5">
     <g id="line2d_5">
      <g>
       <use xlink:href="#m420a342c1f" x="515.454545" y="945" style="stroke: #000000; stroke-width: 0.8"/>
      </g>
     </g>
     <g id="text_5">
      <!-- 20 -->
      <g transform="translate(509.092045 959.598438) scale(0.1 -0.1)">
       <defs>
        <path id="DejaVuSans-32" d="M 1228 531 
L 3431 531 
L 3431 0 
L 469 0 
L 469 531 
Q 828 903 1448 1529 
Q 2069 2156 2228 2338 
Q 2531 2678 2651 2914 
Q 2772 3150 2772 3378 
Q 2772 3750 2511 3984 
Q 2250 4219 1831 4219 
Q 1534 4219 1204 4116 
Q 875 4013 500 3803 
L 500 4441 
Q 881 4594 1212 4672 
Q 1544 4750 1819 4750 
Q 2544 4750 2975 4387 
Q 3406 4025 3406 3419 
Q 3406 3131 3298 2873 
Q 3191 2616 2906 2266 
Q 2828 2175 2409 1742 
Q 1991 1309 1228 531 
z
" transform="scale(0.015625)"/>
       </defs>
       <use xlink:href="#DejaVuSans-32"/>
       <use xlink:href="#DejaVuSans-30" x="63.623047"/>
      </g>
     </g>
    </g>
    <g id="xtick_6">
     <g id="line2d_6">
      <g>
       <use xlink:href="#m420a342c1f" x="610.568182" y="945" style="stroke: #000000; stroke-width: 0.8"/>
      </g>
     </g>
     <g id="text_6">
      <!-- 25 -->
      <g transform="translate(604.205682 959.598438) scale(0.1 -0.1)">
       <use xlink:href="#DejaVuSans-32"/>
       <use xlink:href="#DejaVuSans-35" x="63.623047"/>
      </g>
     </g>
    </g>
    <g id="xtick_7">
     <g id="line2d_7">
      <g>
       <use xlink:href="#m420a342c1f" x="705.681818" y="945" style="stroke: #000000; stroke-width: 0.8"/>
      </g>
     </g>
     <g id="text_7">
      <!-- 30 -->
      <g transform="translate(699.319318 959.598438) scale(0.1 -0.1)">
       <defs>
        <path id="DejaVuSans-33" d="M 2597 2516 
Q 3050 2419 3304 2112 
Q 3559 1806 3559 1356 
Q 3559 666 3084 287 
Q 2609 -91 1734 -91 
Q 1441 -91 1130 -33 
Q 819 25 488 141 
L 488 750 
Q 750 597 1062 519 
Q 1375 441 1716 441 
Q 2309 441 2620 675 
Q 2931 909 2931 1356 
Q 2931 1769 2642 2001 
Q 2353 2234 1838 2234 
L 1294 2234 
L 1294 2753 
L 1863 2753 
Q 2328 2753 2575 2939 
Q 2822 3125 2822 3475 
Q 2822 3834 2567 4026 
Q 2313 4219 1838 4219 
Q 1578 4219 1281 4162 
Q 984 4106 628 3988 
L 628 4550 
Q 988 4650 1302 4700 
Q 1616 4750 1894 4750 
Q 2613 4750 3031 4423 
Q 3450 4097 3450 3541 
Q 3450 3153 3228 2886 
Q 3006 2619 2597 2516 
z
" transform="scale(0.015625)"/>
       </defs>
       <use xlink:href="#DejaVuSans-33"/>
       <use xlink:href="#DejaVuSans-30" x="63.623047"/>
      </g>
     </g>
    </g>
    <g id="xtick_8">
     <g id="line2d_8">
      <g>
       <use xlink:href="#m420a342c1f" x="800.795455" y="945" style="stroke: #000000; stroke-width: 0.8"/>
      </g>
     </g>
     <g id="text_8">
      <!-- 35 -->
      <g transform="translate(794.432955 959.598438) scale(0.1 -0.1)">
       <use xlink:href="#DejaVuSans-33"/>
       <use xlink:href="#DejaVuSans-35" x="63.623047"/>
      </g>
     </g>
    </g>
    <g id="xtick_9">
     <g id="line2d_9">
      <g>
       <use xlink:href="#m420a342c1f" x="895.909091" y="945" style="stroke: #000000; stroke-width: 0.8"/>
      </g>
     </g>
     <g id="text_9">
      <!-- 40 -->
      <g transform="translate(889.546591 959.598438) scale(0.1 -0.1)">
       <defs>
        <path id="DejaVuSans-34" d="M 2419 4116 
L 825 1625 
L 2419 1625 
L 2419 4116 
z
M 2253 4666 
L 3047 4666 
L 3047 1625 
L 3713 1625 
L 3713 1100 
L 3047 1100 
L 3047 0 
L 2419 0 
L 2419 1100 
L 313 1100 
L 313 1709 
L 2253 4666 
z
" transform="scale(0.015625)"/>
       </defs>
       <use xlink:href="#DejaVuSans-34"/>
       <use xlink:href="#DejaVuSans-30" x="63.623047"/>
      </g>
     </g>
    </g>
    <g id="text_10">
     <!-- Attemps -->
     <g transform="translate(532.521094 973.276562) scale(0.1 -0.1)">
      <defs>
       <path id="DejaVuSans-41" d="M 2188 4044 
L 1331 1722 
L 3047 1722 
L 2188 4044 
z
M 1831 4666 
L 2547 4666 
L 4325 0 
L 3669 0 
L 3244 1197 
L 1141 1197 
L 716 0 
L 50 0 
L 1831 4666 
z
" transform="scale(0.015625)"/>
       <path id="DejaVuSans-74" d="M 1172 4494 
L 1172 3500 
L 2356 3500 
L 2356 3053 
L 1172 3053 
L 1172 1153 
Q 1172 725 1289 603 
Q 1406 481 1766 481 
L 2356 481 
L 2356 0 
L 1766 0 
Q 1100 0 847 248 
Q 594 497 594 1153 
L 594 3053 
L 172 3053 
L 172 3500 
L 594 3500 
L 594 4494 
L 1172 4494 
z
" transform="scale(0.015625)"/>
       <path id="DejaVuSans-65" d="M 3597 1894 
L 3597 1613 
L 953 1613 
Q 991 1019 1311 708 
Q 1631 397 2203 397 
Q 2534 397 2845 478 
Q 3156 559 3463 722 
L 3463 178 
Q 3153 47 2828 -22 
Q 2503 -91 2169 -91 
Q 1331 -91 842 396 
Q 353 884 353 1716 
Q 353 2575 817 3079 
Q 1281 3584 2069 3584 
Q 2775 3584 3186 3129 
Q 3597 2675 3597 1894 
z
M 3022 2063 
Q 3016 2534 2758 2815 
Q 2500 3097 2075 3097 
Q 1594 3097 1305 2825 
Q 1016 2553 972 2059 
L 3022 2063 
z
" transform="scale(0.015625)"/>
       <path id="DejaVuSans-6d" d="M 3328 2828 
Q 3544 3216 3844 3400 
Q 4144 3584 4550 3584 
Q 5097 3584 5394 3201 
Q 5691 2819 5691 2113 
L 5691 0 
L 5113 0 
L 5113 2094 
Q 5113 2597 4934 2840 
Q 4756 3084 4391 3084 
Q 3944 3084 3684 2787 
Q 3425 2491 3425 1978 
L 3425 0 
L 2847 0 
L 2847 2094 
Q 2847 2600 2669 2842 
Q 2491 3084 2119 3084 
Q 1678 3084 1418 2786 
Q 1159 2488 1159 1978 
L 1159 0 
L 581 0 
L 581 3500 
L 1159 3500 
L 1159 2956 
Q 1356 3278 1631 3431 
Q 1906 3584 2284 3584 
Q 2666 3584 2933 3390 
Q 3200 3197 3328 2828 
z
" transform="scale(0.015625)"/>
       <path id="DejaVuSans-70" d="M 1159 525 
L 1159 -1331 
L 581 -1331 
L 581 3500 
L 1159 3500 
L 1159 2969 
Q 1341 3281 1617 3432 
Q 1894 3584 2278 3584 
Q 2916 3584 3314 3078 
Q 3713 2572 3713 1747 
Q 3713 922 3314 415 
Q 2916 -91 2278 -91 
Q 1894 -91 1617 61 
Q 1341 213 1159 525 
z
M 3116 1747 
Q 3116 2381 2855 2742 
Q 2594 3103 2138 3103 
Q 1681 3103 1420 2742 
Q 1159 2381 1159 1747 
Q 1159 1113 1420 752 
Q 1681 391 2138 391 
Q 2594 391 2855 752 
Q 3116 1113 3116 1747 
z
" transform="scale(0.015625)"/>
       <path id="DejaVuSans-73" d="M 2834 3397 
L 2834 2853 
Q 2591 2978 2328 3040 
Q 2066 3103 1784 3103 
Q 1356 3103 1142 2972 
Q 928 2841 928 2578 
Q 928 2378 1081 2264 
Q 1234 2150 1697 2047 
L 1894 2003 
Q 2506 1872 2764 1633 
Q 3022 1394 3022 966 
Q 3022 478 2636 193 
Q 2250 -91 1575 -91 
Q 1294 -91 989 -36 
Q 684 19 347 128 
L 347 722 
Q 666 556 975 473 
Q 1284 391 1588 391 
Q 1994 391 2212 530 
Q 2431 669 2431 922 
Q 2431 1156 2273 1281 
Q 2116 1406 1581 1522 
L 1381 1569 
Q 847 1681 609 1914 
Q 372 2147 372 2553 
Q 372 3047 722 3315 
Q 1072 3584 1716 3584 
Q 2034 3584 2315 3537 
Q 2597 3491 2834 3397 
z
" transform="scale(0.015625)"/>
      </defs>
      <use xlink:href="#DejaVuSans-41"/>
      <use xlink:href="#DejaVuSans-74" x="66.658203"/>
      <use xlink:href="#DejaVuSans-74" x="105.867188"/>
      <use xlink:href="#DejaVuSans-65" x="145.076172"/>
      <use xlink:href="#DejaVuSans-6d" x="206.599609"/>
      <use xlink:href="#DejaVuSans-70" x="304.011719"/>
      <use xlink:href="#DejaVuSans-73" x="367.488281"/>
     </g>
    </g>
   </g>
   <g id="matplotlib.axis_2">
    <g id="ytick_1">
     <g id="line2d_10">
      <defs>
       <path id="m08e2a69507" d="M 0 0 
L -3.5 0 
" style="stroke: #000000; stroke-width: 0.8"/>
      </defs>
      <g>
       <use xlink:href="#m08e2a69507" x="135" y="945" style="stroke: #000000; stroke-width: 0.8"/>
      </g>
     </g>
     <g id="text_11">
      <!-- 0 -->
      <g transform="translate(121.6375 948.799219) scale(0.1 -0.1)">
       <use xlink:href="#DejaVuSans-30"/>
      </g>
     </g>
    </g>
    <g id="ytick_2">
     <g id="line2d_11">
      <g>
       <use xlink:href="#m08e2a69507" x="135" y="848.170645" style="stroke: #000000; stroke-width: 0.8"/>
      </g>
     </g>
     <g id="text_12">
      <!-- 2500 -->
      <g transform="translate(102.55 851.969864) scale(0.1 -0.1)">
       <use xlink:href="#DejaVuSans-32"/>
       <use xlink:href="#DejaVuSans-35" x="63.623047"/>
       <use xlink:href="#DejaVuSans-30" x="127.246094"/>
       <use xlink:href="#DejaVuSans-30" x="190.869141"/>
      </g>
     </g>
    </g>
    <g id="ytick_3">
     <g id="line2d_12">
      <g>
       <use xlink:href="#m08e2a69507" x="135" y="751.34129" style="stroke: #000000; stroke-width: 0.8"/>
      </g>
     </g>
     <g id="text_13">
      <!-- 5000 -->
      <g transform="translate(102.55 755.140508) scale(0.1 -0.1)">
       <use xlink:href="#DejaVuSans-35"/>
       <use xlink:href="#DejaVuSans-30" x="63.623047"/>
       <use xlink:href="#DejaVuSans-30" x="127.246094"/>
       <use xlink:href="#DejaVuSans-30" x="190.869141"/>
      </g>
     </g>
    </g>
    <g id="ytick_4">
     <g id="line2d_13">
      <g>
       <use xlink:href="#m08e2a69507" x="135" y="654.511934" style="stroke: #000000; stroke-width: 0.8"/>
      </g>
     </g>
     <g id="text_14">
      <!-- 7500 -->
      <g transform="translate(102.55 658.311153) scale(0.1 -0.1)">
       <defs>
        <path id="DejaVuSans-37" d="M 525 4666 
L 3525 4666 
L 3525 4397 
L 1831 0 
L 1172 0 
L 2766 4134 
L 525 4134 
L 525 4666 
z
" transform="scale(0.015625)"/>
       </defs>
       <use xlink:href="#DejaVuSans-37"/>
       <use xlink:href="#DejaVuSans-35" x="63.623047"/>
       <use xlink:href="#DejaVuSans-30" x="127.246094"/>
       <use xlink:href="#DejaVuSans-30" x="190.869141"/>
      </g>
     </g>
    </g>
    <g id="ytick_5">
     <g id="line2d_14">
      <g>
       <use xlink:href="#m08e2a69507" x="135" y="557.682579" style="stroke: #000000; stroke-width: 0.8"/>
      </g>
     </g>
     <g id="text_15">
      <!-- 10000 -->
      <g transform="translate(96.1875 561.481798) scale(0.1 -0.1)">
       <use xlink:href="#DejaVuSans-31"/>
       <use xlink:href="#DejaVuSans-30" x="63.623047"/>
       <use xlink:href="#DejaVuSans-30" x="127.246094"/>
       <use xlink:href="#DejaVuSans-30" x="190.869141"/>
       <use xlink:href="#DejaVuSans-30" x="254.492188"/>
      </g>
     </g>
    </g>
    <g id="ytick_6">
     <g id="line2d_15">
      <g>
       <use xlink:href="#m08e2a69507" x="135" y="460.853224" style="stroke: #000000; stroke-width: 0.8"/>
      </g>
     </g>
     <g id="text_16">
      <!-- 12500 -->
      <g transform="translate(96.1875 464.652443) scale(0.1 -0.1)">
       <use xlink:href="#DejaVuSans-31"/>
       <use xlink:href="#DejaVuSans-32" x="63.623047"/>
       <use xlink:href="#DejaVuSans-35" x="127.246094"/>
       <use xlink:href="#DejaVuSans-30" x="190.869141"/>
       <use xlink:href="#DejaVuSans-30" x="254.492188"/>
      </g>
     </g>
    </g>
    <g id="ytick_7">
     <g id="line2d_16">
      <g>
       <use xlink:href="#m08e2a69507" x="135" y="364.023869" style="stroke: #000000; stroke-width: 0.8"/>
      </g>
     </g>
     <g id="text_17">
      <!-- 15000 -->
      <g transform="translate(96.1875 367.823088) scale(0.1 -0.1)">
       <use xlink:href="#DejaVuSans-31"/>
       <use xlink:href="#DejaVuSans-35" x="63.623047"/>
       <use xlink:href="#DejaVuSans-30" x="127.246094"/>
       <use xlink:href="#DejaVuSans-30" x="190.869141"/>
       <use xlink:href="#DejaVuSans-30" x="254.492188"/>
      </g>
     </g>
    </g>
    <g id="ytick_8">
     <g id="line2d_17">
      <g>
       <use xlink:href="#m08e2a69507" x="135" y="267.194514" style="stroke: #000000; stroke-width: 0.8"/>
      </g>
     </g>
     <g id="text_18">
      <!-- 17500 -->
      <g transform="translate(96.1875 270.993732) scale(0.1 -0.1)">
       <use xlink:href="#DejaVuSans-31"/>
       <use xlink:href="#DejaVuSans-37" x="63.623047"/>
       <use xlink:href="#DejaVuSans-35" x="127.246094"/>
       <use xlink:href="#DejaVuSans-30" x="190.869141"/>
       <use xlink:href="#DejaVuSans-30" x="254.492188"/>
      </g>
     </g>
    </g>
    <g id="ytick_9">
     <g id="line2d_18">
      <g>
       <use xlink:href="#m08e2a69507" x="135" y="170.365159" style="stroke: #000000; stroke-width: 0.8"/>
      </g>
     </g>
     <g id="text_19">
      <!-- 20000 -->
      <g transform="translate(96.1875 174.164377) scale(0.1 -0.1)">
       <use xlink:href="#DejaVuSans-32"/>
       <use xlink:href="#DejaVuSans-30" x="63.623047"/>
       <use xlink:href="#DejaVuSans-30" x="127.246094"/>
       <use xlink:href="#DejaVuSans-30" x="190.869141"/>
       <use xlink:href="#DejaVuSans-30" x="254.492188"/>
      </g>
     </g>
    </g>
   </g>
   <g id="patch_93">
    <path d="M 135 945 
L 135 129.6 
" style="fill: none; stroke: #000000; stroke-width: 0.8; stroke-linejoin: miter; stroke-linecap: square"/>
   </g>
   <g id="patch_94">
    <path d="M 972 945 
L 972 129.6 
" style="fill: none; stroke: #000000; stroke-width: 0.8; stroke-linejoin: miter; stroke-linecap: square"/>
   </g>
   <g id="patch_95">
    <path d="M 135 945 
L 972 945 
" style="fill: none; stroke: #000000; stroke-width: 0.8; stroke-linejoin: miter; stroke-linecap: square"/>
   </g>
   <g id="patch_96">
    <path d="M 135 129.6 
L 972 129.6 
" style="fill: none; stroke: #000000; stroke-width: 0.8; stroke-linejoin: miter; stroke-linecap: square"/>
   </g>
   <g id="text_20">
    <!-- Attempts to achieve a fidelity of entanglement equal to 1 in a path of length 5 -->
    <g transform="translate(317.803125 123.6) scale(0.12 -0.12)">
     <defs>
      <path id="DejaVuSans-20" transform="scale(0.015625)"/>
      <path id="DejaVuSans-6f" d="M 1959 3097 
Q 1497 3097 1228 2736 
Q 959 2375 959 1747 
Q 959 1119 1226 758 
Q 1494 397 1959 397 
Q 2419 397 2687 759 
Q 2956 1122 2956 1747 
Q 2956 2369 2687 2733 
Q 2419 3097 1959 3097 
z
M 1959 3584 
Q 2709 3584 3137 3096 
Q 3566 2609 3566 1747 
Q 3566 888 3137 398 
Q 2709 -91 1959 -91 
Q 1206 -91 779 398 
Q 353 888 353 1747 
Q 353 2609 779 3096 
Q 1206 3584 1959 3584 
z
" transform="scale(0.015625)"/>
      <path id="DejaVuSans-61" d="M 2194 1759 
Q 1497 1759 1228 1600 
Q 959 1441 959 1056 
Q 959 750 1161 570 
Q 1363 391 1709 391 
Q 2188 391 2477 730 
Q 2766 1069 2766 1631 
L 2766 1759 
L 2194 1759 
z
M 3341 1997 
L 3341 0 
L 2766 0 
L 2766 531 
Q 2569 213 2275 61 
Q 1981 -91 1556 -91 
Q 1019 -91 701 211 
Q 384 513 384 1019 
Q 384 1609 779 1909 
Q 1175 2209 1959 2209 
L 2766 2209 
L 2766 2266 
Q 2766 2663 2505 2880 
Q 2244 3097 1772 3097 
Q 1472 3097 1187 3025 
Q 903 2953 641 2809 
L 641 3341 
Q 956 3463 1253 3523 
Q 1550 3584 1831 3584 
Q 2591 3584 2966 3190 
Q 3341 2797 3341 1997 
z
" transform="scale(0.015625)"/>
      <path id="DejaVuSans-63" d="M 3122 3366 
L 3122 2828 
Q 2878 2963 2633 3030 
Q 2388 3097 2138 3097 
Q 1578 3097 1268 2742 
Q 959 2388 959 1747 
Q 959 1106 1268 751 
Q 1578 397 2138 397 
Q 2388 397 2633 464 
Q 2878 531 3122 666 
L 3122 134 
Q 2881 22 2623 -34 
Q 2366 -91 2075 -91 
Q 1284 -91 818 406 
Q 353 903 353 1747 
Q 353 2603 823 3093 
Q 1294 3584 2113 3584 
Q 2378 3584 2631 3529 
Q 2884 3475 3122 3366 
z
" transform="scale(0.015625)"/>
      <path id="DejaVuSans-68" d="M 3513 2113 
L 3513 0 
L 2938 0 
L 2938 2094 
Q 2938 2591 2744 2837 
Q 2550 3084 2163 3084 
Q 1697 3084 1428 2787 
Q 1159 2491 1159 1978 
L 1159 0 
L 581 0 
L 581 4863 
L 1159 4863 
L 1159 2956 
Q 1366 3272 1645 3428 
Q 1925 3584 2291 3584 
Q 2894 3584 3203 3211 
Q 3513 2838 3513 2113 
z
" transform="scale(0.015625)"/>
      <path id="DejaVuSans-69" d="M 603 3500 
L 1178 3500 
L 1178 0 
L 603 0 
L 603 3500 
z
M 603 4863 
L 1178 4863 
L 1178 4134 
L 603 4134 
L 603 4863 
z
" transform="scale(0.015625)"/>
      <path id="DejaVuSans-76" d="M 191 3500 
L 800 3500 
L 1894 563 
L 2988 3500 
L 3597 3500 
L 2284 0 
L 1503 0 
L 191 3500 
z
" transform="scale(0.015625)"/>
      <path id="DejaVuSans-66" d="M 2375 4863 
L 2375 4384 
L 1825 4384 
Q 1516 4384 1395 4259 
Q 1275 4134 1275 3809 
L 1275 3500 
L 2222 3500 
L 2222 3053 
L 1275 3053 
L 1275 0 
L 697 0 
L 697 3053 
L 147 3053 
L 147 3500 
L 697 3500 
L 697 3744 
Q 697 4328 969 4595 
Q 1241 4863 1831 4863 
L 2375 4863 
z
" transform="scale(0.015625)"/>
      <path id="DejaVuSans-64" d="M 2906 2969 
L 2906 4863 
L 3481 4863 
L 3481 0 
L 2906 0 
L 2906 525 
Q 2725 213 2448 61 
Q 2172 -91 1784 -91 
Q 1150 -91 751 415 
Q 353 922 353 1747 
Q 353 2572 751 3078 
Q 1150 3584 1784 3584 
Q 2172 3584 2448 3432 
Q 2725 3281 2906 2969 
z
M 947 1747 
Q 947 1113 1208 752 
Q 1469 391 1925 391 
Q 2381 391 2643 752 
Q 2906 1113 2906 1747 
Q 2906 2381 2643 2742 
Q 2381 3103 1925 3103 
Q 1469 3103 1208 2742 
Q 947 2381 947 1747 
z
" transform="scale(0.015625)"/>
      <path id="DejaVuSans-6c" d="M 603 4863 
L 1178 4863 
L 1178 0 
L 603 0 
L 603 4863 
z
" transform="scale(0.015625)"/>
      <path id="DejaVuSans-79" d="M 2059 -325 
Q 1816 -950 1584 -1140 
Q 1353 -1331 966 -1331 
L 506 -1331 
L 506 -850 
L 844 -850 
Q 1081 -850 1212 -737 
Q 1344 -625 1503 -206 
L 1606 56 
L 191 3500 
L 800 3500 
L 1894 763 
L 2988 3500 
L 3597 3500 
L 2059 -325 
z
" transform="scale(0.015625)"/>
      <path id="DejaVuSans-6e" d="M 3513 2113 
L 3513 0 
L 2938 0 
L 2938 2094 
Q 2938 2591 2744 2837 
Q 2550 3084 2163 3084 
Q 1697 3084 1428 2787 
Q 1159 2491 1159 1978 
L 1159 0 
L 581 0 
L 581 3500 
L 1159 3500 
L 1159 2956 
Q 1366 3272 1645 3428 
Q 1925 3584 2291 3584 
Q 2894 3584 3203 3211 
Q 3513 2838 3513 2113 
z
" transform="scale(0.015625)"/>
      <path id="DejaVuSans-67" d="M 2906 1791 
Q 2906 2416 2648 2759 
Q 2391 3103 1925 3103 
Q 1463 3103 1205 2759 
Q 947 2416 947 1791 
Q 947 1169 1205 825 
Q 1463 481 1925 481 
Q 2391 481 2648 825 
Q 2906 1169 2906 1791 
z
M 3481 434 
Q 3481 -459 3084 -895 
Q 2688 -1331 1869 -1331 
Q 1566 -1331 1297 -1286 
Q 1028 -1241 775 -1147 
L 775 -588 
Q 1028 -725 1275 -790 
Q 1522 -856 1778 -856 
Q 2344 -856 2625 -561 
Q 2906 -266 2906 331 
L 2906 616 
Q 2728 306 2450 153 
Q 2172 0 1784 0 
Q 1141 0 747 490 
Q 353 981 353 1791 
Q 353 2603 747 3093 
Q 1141 3584 1784 3584 
Q 2172 3584 2450 3431 
Q 2728 3278 2906 2969 
L 2906 3500 
L 3481 3500 
L 3481 434 
z
" transform="scale(0.015625)"/>
      <path id="DejaVuSans-71" d="M 947 1747 
Q 947 1113 1208 752 
Q 1469 391 1925 391 
Q 2381 391 2643 752 
Q 2906 1113 2906 1747 
Q 2906 2381 2643 2742 
Q 2381 3103 1925 3103 
Q 1469 3103 1208 2742 
Q 947 2381 947 1747 
z
M 2906 525 
Q 2725 213 2448 61 
Q 2172 -91 1784 -91 
Q 1150 -91 751 415 
Q 353 922 353 1747 
Q 353 2572 751 3078 
Q 1150 3584 1784 3584 
Q 2172 3584 2448 3432 
Q 2725 3281 2906 2969 
L 2906 3500 
L 3481 3500 
L 3481 -1331 
L 2906 -1331 
L 2906 525 
z
" transform="scale(0.015625)"/>
      <path id="DejaVuSans-75" d="M 544 1381 
L 544 3500 
L 1119 3500 
L 1119 1403 
Q 1119 906 1312 657 
Q 1506 409 1894 409 
Q 2359 409 2629 706 
Q 2900 1003 2900 1516 
L 2900 3500 
L 3475 3500 
L 3475 0 
L 2900 0 
L 2900 538 
Q 2691 219 2414 64 
Q 2138 -91 1772 -91 
Q 1169 -91 856 284 
Q 544 659 544 1381 
z
M 1991 3584 
L 1991 3584 
z
" transform="scale(0.015625)"/>
     </defs>
     <use xlink:href="#DejaVuSans-41"/>
     <use xlink:href="#DejaVuSans-74" x="66.658203"/>
     <use xlink:href="#DejaVuSans-74" x="105.867188"/>
     <use xlink:href="#DejaVuSans-65" x="145.076172"/>
     <use xlink:href="#DejaVuSans-6d" x="206.599609"/>
     <use xlink:href="#DejaVuSans-70" x="304.011719"/>
     <use xlink:href="#DejaVuSans-74" x="367.488281"/>
     <use xlink:href="#DejaVuSans-73" x="406.697266"/>
     <use xlink:href="#DejaVuSans-20" x="458.796875"/>
     <use xlink:href="#DejaVuSans-74" x="490.583984"/>
     <use xlink:href="#DejaVuSans-6f" x="529.792969"/>
     <use xlink:href="#DejaVuSans-20" x="590.974609"/>
     <use xlink:href="#DejaVuSans-61" x="622.761719"/>
     <use xlink:href="#DejaVuSans-63" x="684.041016"/>
     <use xlink:href="#DejaVuSans-68" x="739.021484"/>
     <use xlink:href="#DejaVuSans-69" x="802.400391"/>
     <use xlink:href="#DejaVuSans-65" x="830.183594"/>
     <use xlink:href="#DejaVuSans-76" x="891.707031"/>
     <use xlink:href="#DejaVuSans-65" x="950.886719"/>
     <use xlink:href="#DejaVuSans-20" x="1012.410156"/>
     <use xlink:href="#DejaVuSans-61" x="1044.197266"/>
     <use xlink:href="#DejaVuSans-20" x="1105.476562"/>
     <use xlink:href="#DejaVuSans-66" x="1137.263672"/>
     <use xlink:href="#DejaVuSans-69" x="1172.46875"/>
     <use xlink:href="#DejaVuSans-64" x="1200.251953"/>
     <use xlink:href="#DejaVuSans-65" x="1263.728516"/>
     <use xlink:href="#DejaVuSans-6c" x="1325.251953"/>
     <use xlink:href="#DejaVuSans-69" x="1353.035156"/>
     <use xlink:href="#DejaVuSans-74" x="1380.818359"/>
     <use xlink:href="#DejaVuSans-79" x="1420.027344"/>
     <use xlink:href="#DejaVuSans-20" x="1479.207031"/>
     <use xlink:href="#DejaVuSans-6f" x="1510.994141"/>
     <use xlink:href="#DejaVuSans-66" x="1572.175781"/>
     <use xlink:href="#DejaVuSans-20" x="1607.380859"/>
     <use xlink:href="#DejaVuSans-65" x="1639.167969"/>
     <use xlink:href="#DejaVuSans-6e" x="1700.691406"/>
     <use xlink:href="#DejaVuSans-74" x="1764.070312"/>
     <use xlink:href="#DejaVuSans-61" x="1803.279297"/>
     <use xlink:href="#DejaVuSans-6e" x="1864.558594"/>
     <use xlink:href="#DejaVuSans-67" x="1927.9375"/>
     <use xlink:href="#DejaVuSans-6c" x="1991.414062"/>
     <use xlink:href="#DejaVuSans-65" x="2019.197266"/>
     <use xlink:href="#DejaVuSans-6d" x="2080.720703"/>
     <use xlink:href="#DejaVuSans-65" x="2178.132812"/>
     <use xlink:href="#DejaVuSans-6e" x="2239.65625"/>
     <use xlink:href="#DejaVuSans-74" x="2303.035156"/>
     <use xlink:href="#DejaVuSans-20" x="2342.244141"/>
     <use xlink:href="#DejaVuSans-65" x="2374.03125"/>
     <use xlink:href="#DejaVuSans-71" x="2435.554688"/>
     <use xlink:href="#DejaVuSans-75" x="2499.03125"/>
     <use xlink:href="#DejaVuSans-61" x="2562.410156"/>
     <use xlink:href="#DejaVuSans-6c" x="2623.689453"/>
     <use xlink:href="#DejaVuSans-20" x="2651.472656"/>
     <use xlink:href="#DejaVuSans-74" x="2683.259766"/>
     <use xlink:href="#DejaVuSans-6f" x="2722.46875"/>
     <use xlink:href="#DejaVuSans-20" x="2783.650391"/>
     <use xlink:href="#DejaVuSans-31" x="2815.4375"/>
     <use xlink:href="#DejaVuSans-20" x="2879.060547"/>
     <use xlink:href="#DejaVuSans-69" x="2910.847656"/>
     <use xlink:href="#DejaVuSans-6e" x="2938.630859"/>
     <use xlink:href="#DejaVuSans-20" x="3002.009766"/>
     <use xlink:href="#DejaVuSans-61" x="3033.796875"/>
     <use xlink:href="#DejaVuSans-20" x="3095.076172"/>
     <use xlink:href="#DejaVuSans-70" x="3126.863281"/>
     <use xlink:href="#DejaVuSans-61" x="3190.339844"/>
     <use xlink:href="#DejaVuSans-74" x="3251.619141"/>
     <use xlink:href="#DejaVuSans-68" x="3290.828125"/>
     <use xlink:href="#DejaVuSans-20" x="3354.207031"/>
     <use xlink:href="#DejaVuSans-6f" x="3385.994141"/>
     <use xlink:href="#DejaVuSans-66" x="3447.175781"/>
     <use xlink:href="#DejaVuSans-20" x="3482.380859"/>
     <use xlink:href="#DejaVuSans-6c" x="3514.167969"/>
     <use xlink:href="#DejaVuSans-65" x="3541.951172"/>
     <use xlink:href="#DejaVuSans-6e" x="3603.474609"/>
     <use xlink:href="#DejaVuSans-67" x="3666.853516"/>
     <use xlink:href="#DejaVuSans-74" x="3730.330078"/>
     <use xlink:href="#DejaVuSans-68" x="3769.539062"/>
     <use xlink:href="#DejaVuSans-20" x="3832.917969"/>
     <use xlink:href="#DejaVuSans-35" x="3864.705078"/>
    </g>
   </g>
  </g>
 </g>
 <defs>
  <clipPath id="p26996a9e31">
   <rect x="135" y="129.6" width="837" height="815.4"/>
  </clipPath>
 </defs>
</svg>
